# xmcd
#
# Track frame offsets:
#	150
#	10555
#	23727
#	35837
#	47905
#	60487
#	69427
#	80585
#	93090
#	103590
#	116282
#	129442
#	139540
#	150037
#	165715
#	178790
#	193927
#	209152
#	224390
#	237012
#
# Disc length: 3429
#
# Revision: 2
# Processed by: cddbd v1.5.1PL0 Copyright (c) Steve Scherf et al.
# Submitted via: OrangeCD 4.1
# Normalized: r0:DSETVAR1,TDELIM( - ),TSWAP
#
DISCID=080d6314
DTITLE=Various Artist - Living The Blues - Blues Christmas
DYEAR=1900
DGENRE=
TTITLE0=Mabel Scott - Boogie Woogie Santa Claus
TTITLE1=Amos Milburn - Let's Make Christmas Merry, Baby
TTITLE2=Washboard Pete - Christmas Blues
TTITLE3=Titus Turner - Christmas Morningt
TTITLE4=Julia Lee - Christmas Spirits
TTITLE5=Jimmy Butler - trim your Tree
TTITLE6=Lowell Fulson - Lonesome Christmas
TTITLE7=Freddy king - Christmas Tears
TTITLE8=Jimmy McCracklin - Christmas Time (Part 1)
TTITLE9=B. B. King - Christmas Celebration
TTITLE10=Charles Brown - Merry Christmas, Baby
TTITLE11=Detroit Junior - Christmas Day
TTITLE12=Amos Milburn - Christmas Comes But Once A Year
TTITLE13=John Lee Hooker - Blues For Christmas
TTITLE14=Little Johnny Taylor - Please Come Home For Christmas
TTITLE15=Louis Jordan - Santa Claus, Santa Claus
TTITLE16=Eddie Campbell - Santa's Messin' With The Kid
TTITLE17=Billy Boy Arnold - Christmas Time
TTITLE18=Nappy Brown - Santa Claus Is Back In Town
TTITLE19=Koko Taylor - Merry, Merry Christmas
EXTD=
EXTT0=
EXTT1=
EXTT2=
EXTT3=
EXTT4=
EXTT5=
EXTT6=
EXTT7=
EXTT8=
EXTT9=
EXTT10=
EXTT11=
EXTT12=
EXTT13=
EXTT14=
EXTT15=
EXTT16=
EXTT17=
EXTT18=
EXTT19=
PLAYORDER=
